# xmcd
#
# Track frame offsets:
#	182
#	18540
#	32800
#	54535
#	70385
#	85007
#	99732
#	113797
#	132472
#	150385
#
# Disc length: 2262 seconds
#
# Revision: 5
# Processed by: cddbd v1.5.1PL0 Copyright (c) Steve Scherf et al.
# Submitted via: dBpowerAMP V4.0
#
DISCID=8108d40a
DTITLE=Gonzaguinha,AKALuísGonzagaDoNascimentoJúnior,RioDeJaniero,Brazil - É;WorldPacificCDP7-91688-2
DYEAR=1990
DGENRE=Ethnic
TTITLE0=Tanacara[Portuguese~It'sInTheFace](1990,Gonzaguinha,AKALuísGonzagaDoNascimentoJúnior,RioDeJaniero,Brazil)
TTITLE1=Ma-gica[Portuguese~EvilMagic](1990,Gonzaguinha,AKALuísGonzagaDoNascimentoJúnior,RioDeJaniero,Brazil)
TTITLE2=CoracoesMarginais[Portuguese~MarginalHearts](1990,Gonzaguinha,AKALuísGonzagaDoNascimentoJúnior,RioDeJaniero,Brazil)
TTITLE3=E[Portuguese~ItIs](1990,Gonzaguinha,AKALuísGonzagaDoNascimentoJúnior,RioDeJaniero,Brazil)
TTITLE4=Tudo[Portuguese~Everything](1990,Gonzaguinha,AKALuísGonzagaDoNascimentoJúnior,RioDeJaniero,Brazil)
TTITLE5=QualquerSituacaoDeAmor[Portuguese~AnyPostureOfLove](1990,Gonzaguinha,AKALuísGonzagaDoNascimentoJúnior,RioDeJaniero,Brazil)
TTITLE6=Rai'[Portuguese~Ray](1990,Gonzaguinha,AKALuísGonzagaDoNascimentoJúnior,RioDeJaniero,Brazil)
TTITLE7=OsMeninosDoBrasil[Portuguese~TheKidsOfBrazil](1990,Gonzaguinha,AKALuísGonzagaDoNascimentoJúnior,RioDeJaniero,Brazil)
TTITLE8=Acalma[Portuguese~KeepCalm](1990,Gonzaguinha,AKALuísGonzagaDoNascimentoJúnior,RioDeJaniero,Brazil)
TTITLE9=Primavera{ComecoDeVida}[Portuguese~Sping,BeginningOfLife](1990,Gonzaguinha,AKALuísGonzagaDoNascimentoJúnior,RioDeJaniero,Brazil)
EXTD=more info\nMillenniumMusicProjectFormat, syntax as follows:\nTitle{Subtitle}[info](Lyricist;Composer;Date,Artist,Location)[info]\ncorrections to: windking3@yahoo.com
EXTT0=
EXTT1=
EXTT2=
EXTT3=
EXTT4=
EXTT5=
EXTT6=
EXTT7=
EXTT8=
EXTT9=
PLAYORDER=
